<svg width="82" height="25" viewBox="0 0 82 25" fill="none" xmlns="http://www.w3.org/2000/svg">
<path d="M36.344 16.224H40.024V18H34.104V6.832H36.344V16.224ZM46.6318 18.112C45.5864 18.112 44.6264 17.8667 43.7518 17.376C42.8771 16.8853 42.1838 16.208 41.6718 15.344C41.1598 14.4693 40.9038 13.4827 40.9038 12.384C40.9038 11.296 41.1598 10.32 41.6718 9.456C42.1838 8.58133 42.8771 7.89867 43.7518 7.408C44.6264 6.91733 45.5864 6.672 46.6318 6.672C47.6878 6.672 48.6478 6.91733 49.5118 7.408C50.3864 7.89867 51.0744 8.58133 51.5758 9.456C52.0878 10.32 52.3438 11.296 52.3438 12.384C52.3438 13.4827 52.0878 14.4693 51.5758 15.344C51.0744 16.208 50.3864 16.8853 49.5118 17.376C48.6371 17.8667 47.6771 18.112 46.6318 18.112ZM46.6318 16.112C47.3038 16.112 47.8958 15.9627 48.4078 15.664C48.9198 15.3547 49.3198 14.9173 49.6078 14.352C49.8958 13.7867 50.0398 13.1307 50.0398 12.384C50.0398 11.6373 49.8958 10.9867 49.6078 10.432C49.3198 9.86667 48.9198 9.43467 48.4078 9.136C47.8958 8.83733 47.3038 8.688 46.6318 8.688C45.9598 8.688 45.3624 8.83733 44.8398 9.136C44.3278 9.43467 43.9278 9.86667 43.6398 10.432C43.3518 10.9867 43.2078 11.6373 43.2078 12.384C43.2078 13.1307 43.3518 13.7867 43.6398 14.352C43.9278 14.9173 44.3278 15.3547 44.8398 15.664C45.3624 15.9627 45.9598 16.112 46.6318 16.112ZM61.7863 10.192C61.5303 9.72267 61.1783 9.36533 60.7303 9.12C60.2823 8.87467 59.7596 8.752 59.1623 8.752C58.5009 8.752 57.9143 8.90133 57.4023 9.2C56.8903 9.49867 56.4903 9.92533 56.2023 10.48C55.9143 11.0347 55.7703 11.6747 55.7703 12.4C55.7703 13.1467 55.9143 13.7973 56.2023 14.352C56.5009 14.9067 56.9116 15.3333 57.4343 15.632C57.9569 15.9307 58.5649 16.08 59.2583 16.08C60.1116 16.08 60.8103 15.856 61.3542 15.408C61.8983 14.9493 62.2556 14.3147 62.4263 13.504H58.5863V11.792H64.6343V13.744C64.4849 14.5227 64.1649 15.2427 63.6743 15.904C63.1836 16.5653 62.5489 17.0987 61.7703 17.504C61.0023 17.8987 60.1383 18.096 59.1783 18.096C58.1009 18.096 57.1249 17.856 56.2503 17.376C55.3863 16.8853 54.7036 16.208 54.2023 15.344C53.7116 14.48 53.4663 13.4987 53.4663 12.4C53.4663 11.3013 53.7116 10.32 54.2023 9.456C54.7036 8.58133 55.3863 7.904 56.2503 7.424C57.1249 6.93333 58.0956 6.688 59.1623 6.688C60.4209 6.688 61.5143 6.99733 62.4423 7.616C63.3703 8.224 64.0103 9.08267 64.3623 10.192H61.7863ZM68.5315 6.832V18H66.2915V6.832H68.5315ZM80.2966 18H78.0566L72.9846 10.336V18H70.7446V6.816H72.9846L78.0566 14.496V6.816H80.2966V18Z" fill="#F07807"/>
<path d="M12.5 14.0625C16.3818 14.0625 19.5312 10.9131 19.5312 7.03125C19.5312 3.14941 16.3818 0 12.5 0C8.61816 0 5.46875 3.14941 5.46875 7.03125C5.46875 10.9131 8.61816 14.0625 12.5 14.0625ZM18.75 15.625H18.6844C16.955 15.625 15.2615 16.1289 13.5452 16.3418C13.2026 16.3843 12.8538 16.4062 12.5 16.4062C12.1424 16.4062 11.7901 16.3838 11.4443 16.3404C9.73518 16.1257 8.04885 15.625 6.32628 15.625H6.25C2.79785 15.625 0 18.4229 0 21.875V22.6562C0 23.9502 1.0498 25 2.34375 25H22.6562C23.9502 25 25 23.9502 25 22.6562V21.875C25 18.4229 22.2021 15.625 18.75 15.625Z" fill="#F07807"/>
</svg>
